<svg width="100" height="100" viewBox="0 0 100 100" fill="none" xmlns="http://www.w3.org/2000/svg">
<rect x="0.5" y="0.5" width="99" height="99" fill="#F6F9FF" stroke="#284B63"/>
<path d="M0 1H29.6902L7.12565 9.61015L0 30.6902V1Z" fill="#284B63"/>
<path d="M99.6904 99.6902H70.0002L92.5648 91.08L99.6904 70V99.6902Z" fill="#284B63"/>
<path d="M13.4236 38.1C13.5503 38.1 13.6603 38.1367 13.7536 38.21C13.8536 38.2833 13.9203 38.38 13.9536 38.5L15.9536 45H14.3936L13.8836 43.17H11.5036L11.0036 45H9.44359L11.4436 38.5C11.4769 38.38 11.5403 38.2833 11.6336 38.21C11.7336 38.1367 11.8469 38.1 11.9736 38.1H13.4236ZM12.4136 39.92L11.8236 42.03H13.5636L12.9836 39.92C12.9503 39.8133 12.9203 39.7033 12.8936 39.59C12.8736 39.47 12.8536 39.3567 12.8336 39.25H12.5636C12.5436 39.3567 12.5203 39.47 12.4936 39.59C12.4669 39.7033 12.4403 39.8133 12.4136 39.92ZM18.247 39.94C18.547 39.9333 18.8337 39.9667 19.107 40.04C19.387 40.1133 19.6437 40.23 19.877 40.39C19.8504 40.0567 19.837 39.7067 19.837 39.34V38H21.317V45H20.147L20.017 44.23C19.817 44.4833 19.5604 44.6967 19.247 44.87C18.9404 45.0367 18.5704 45.12 18.137 45.12C17.5037 45.12 17.0504 44.8967 16.777 44.45C16.5104 43.9967 16.377 43.3433 16.377 42.49C16.377 41.8367 16.447 41.3233 16.587 40.95C16.727 40.5767 16.9337 40.3133 17.207 40.16C17.487 40.0067 17.8337 39.9333 18.247 39.94ZM17.897 42.48C17.897 42.8733 17.9237 43.1733 17.977 43.38C18.037 43.5867 18.127 43.7267 18.247 43.8C18.367 43.8733 18.527 43.91 18.727 43.91C18.9537 43.91 19.1437 43.8767 19.297 43.81C19.457 43.7433 19.637 43.6433 19.837 43.51V41.19C19.657 41.1367 19.4837 41.09 19.317 41.05C19.157 41.01 18.9737 40.99 18.767 40.99C18.5604 40.99 18.3904 41.0267 18.257 41.1C18.1304 41.1733 18.037 41.3167 17.977 41.53C17.9237 41.7433 17.897 42.06 17.897 42.48ZM27.4941 40.06L25.8641 44.65C25.7841 44.8833 25.6241 45 25.3841 45H24.1041C23.8574 45 23.6974 44.8833 23.6241 44.65L21.9941 40.06H23.5541L24.4641 43.15C24.5041 43.2967 24.5407 43.4467 24.5741 43.6C24.6074 43.7533 24.6407 43.9 24.6741 44.04H24.8041C24.8374 43.8933 24.8741 43.7467 24.9141 43.6C24.9541 43.4467 24.9941 43.2967 25.0341 43.15L25.9341 40.06H27.4941ZM30.71 39.93C31.33 39.93 31.8067 40.06 32.14 40.32C32.4733 40.58 32.64 41.05 32.64 41.73V45H31.47L31.31 44.22C31.13 44.4267 30.8867 44.6267 30.58 44.82C30.2733 45.0133 29.8967 45.11 29.45 45.11C29.0033 45.11 28.6267 44.9933 28.32 44.76C28.0133 44.5267 27.86 44.18 27.86 43.72V43.21C27.86 42.8167 27.9933 42.51 28.26 42.29C28.5267 42.07 28.8933 41.96 29.36 41.96H31.16V41.73C31.1533 41.49 31.0933 41.32 30.98 41.22C30.8733 41.1133 30.67 41.06 30.37 41.06C30.11 41.06 29.79 41.07 29.41 41.09C29.03 41.1033 28.64 41.1233 28.24 41.15L28.11 40.17C28.3433 40.13 28.6133 40.0933 28.92 40.06C29.2333 40.02 29.5467 39.99 29.86 39.97C30.1733 39.9433 30.4567 39.93 30.71 39.93ZM29.91 44.04C30.09 44.04 30.29 44 30.51 43.92C30.7367 43.8333 30.9533 43.7167 31.16 43.57V42.79H29.82C29.64 42.7967 29.51 42.8433 29.43 42.93C29.3567 43.0167 29.32 43.1333 29.32 43.28V43.52C29.32 43.8667 29.5167 44.04 29.91 44.04ZM34.9834 40.06L35.1134 40.81C35.82 40.2233 36.5267 39.93 37.2334 39.93C38.1667 39.93 38.6334 40.3867 38.6334 41.3V45H37.1534V41.76C37.1534 41.54 37.1134 41.39 37.0334 41.31C36.9534 41.2233 36.8167 41.18 36.6234 41.18C36.4234 41.18 36.22 41.2167 36.0134 41.29C35.8067 41.3567 35.56 41.4633 35.2734 41.61V45H33.8034V40.06H34.9834ZM42.0992 39.93C42.3592 39.93 42.6626 39.9533 43.0092 40C43.3559 40.04 43.6626 40.1167 43.9292 40.23L43.7692 41.16C43.5026 41.1467 43.2459 41.14 42.9992 41.14C42.7592 41.1333 42.5426 41.13 42.3492 41.13C42.0492 41.13 41.8126 41.17 41.6392 41.25C41.4659 41.33 41.3392 41.4733 41.2592 41.68C41.1859 41.88 41.1492 42.16 41.1492 42.52C41.1492 42.8933 41.1859 43.1833 41.2592 43.39C41.3392 43.59 41.4659 43.73 41.6392 43.81C41.8126 43.89 42.0492 43.93 42.3492 43.93C42.5092 43.93 42.7326 43.9267 43.0192 43.92C43.3059 43.9067 43.5892 43.88 43.8692 43.84L44.0092 44.78C43.7426 44.9 43.4392 44.9867 43.0992 45.04C42.7592 45.0933 42.4226 45.12 42.0892 45.12C41.4826 45.12 40.9959 45.0367 40.6292 44.87C40.2626 44.7033 39.9992 44.43 39.8392 44.05C39.6792 43.67 39.5992 43.16 39.5992 42.52C39.5992 41.8867 39.6792 41.3833 39.8392 41.01C40.0059 40.63 40.2726 40.3567 40.6392 40.19C41.0059 40.0167 41.4926 39.93 42.0992 39.93ZM47.1587 39.93C47.9921 39.93 48.5888 40.0733 48.9488 40.36C49.3154 40.6467 49.4987 41.0667 49.4987 41.62C49.5054 42.0667 49.3921 42.4033 49.1588 42.63C48.9254 42.8567 48.5221 42.97 47.9488 42.97H46.1888C46.2288 43.3567 46.3388 43.6167 46.5188 43.75C46.7054 43.8833 46.9921 43.95 47.3788 43.95C47.6054 43.95 47.8854 43.9433 48.2188 43.93C48.5588 43.91 48.8988 43.88 49.2388 43.84L49.3788 44.75C49.0854 44.89 48.7388 44.9867 48.3388 45.04C47.9454 45.0933 47.5688 45.12 47.2088 45.12C46.2621 45.12 45.5921 44.9133 45.1988 44.5C44.8121 44.0867 44.6188 43.4333 44.6188 42.54C44.6188 41.8933 44.7021 41.38 44.8688 41C45.0421 40.62 45.3154 40.3467 45.6887 40.18C46.0621 40.0133 46.5521 39.93 47.1587 39.93ZM47.2088 40.97C46.9554 40.97 46.7521 41 46.5988 41.06C46.4521 41.12 46.3454 41.2367 46.2788 41.41C46.2121 41.5767 46.1721 41.82 46.1588 42.14H47.5488C47.7688 42.14 47.9088 42.0933 47.9688 42C48.0354 41.9067 48.0688 41.77 48.0688 41.59C48.0688 41.3567 48.0021 41.1967 47.8688 41.11C47.7354 41.0167 47.5154 40.97 47.2088 40.97ZM52.1533 39.94C52.4533 39.9333 52.7399 39.9667 53.0133 40.04C53.2933 40.1133 53.5499 40.23 53.7833 40.39C53.7566 40.0567 53.7433 39.7067 53.7433 39.34V38H55.2233V45H54.0533L53.9233 44.23C53.7233 44.4833 53.4666 44.6967 53.1533 44.87C52.8466 45.0367 52.4766 45.12 52.0433 45.12C51.4099 45.12 50.9566 44.8967 50.6833 44.45C50.4166 43.9967 50.2833 43.3433 50.2833 42.49C50.2833 41.8367 50.3533 41.3233 50.4933 40.95C50.6333 40.5767 50.8399 40.3133 51.1133 40.16C51.3933 40.0067 51.7399 39.9333 52.1533 39.94ZM51.8033 42.48C51.8033 42.8733 51.8299 43.1733 51.8833 43.38C51.9433 43.5867 52.0333 43.7267 52.1533 43.8C52.2733 43.8733 52.4333 43.91 52.6333 43.91C52.8599 43.91 53.0499 43.8767 53.2033 43.81C53.3633 43.7433 53.5433 43.6433 53.7433 43.51V41.19C53.5633 41.1367 53.3899 41.09 53.2233 41.05C53.0633 41.01 52.8799 40.99 52.6733 40.99C52.4666 40.99 52.2966 41.0267 52.1633 41.1C52.0366 41.1733 51.9433 41.3167 51.8833 41.53C51.8299 41.7433 51.8033 42.06 51.8033 42.48Z" fill="#284B63"/>
<path d="M61.3283 38C61.9683 38 62.4716 38.0667 62.8383 38.2C63.2116 38.3333 63.4749 38.5633 63.6283 38.89C63.7883 39.2167 63.8683 39.6733 63.8683 40.26C63.8683 40.8467 63.7916 41.3033 63.6383 41.63C63.4916 41.9567 63.2449 42.1833 62.8983 42.31C62.5583 42.4367 62.1016 42.5033 61.5283 42.51C61.3016 42.5033 61.0749 42.4933 60.8483 42.48C60.6283 42.4667 60.4149 42.45 60.2083 42.43V45H58.6883V38.1C58.9616 38.0733 59.2216 38.0533 59.4683 38.04C59.7149 38.0267 59.9816 38.0167 60.2683 38.01C60.5616 38.0033 60.9149 38 61.3283 38ZM61.2983 39.15C61.0983 39.15 60.9049 39.15 60.7183 39.15C60.5383 39.15 60.3683 39.15 60.2083 39.15V41.36H61.2983C61.6983 41.36 61.9716 41.2867 62.1183 41.14C62.2649 40.9933 62.3383 40.7 62.3383 40.26C62.3383 39.82 62.2649 39.5267 62.1183 39.38C61.9716 39.2267 61.6983 39.15 61.2983 39.15ZM67.3409 39.93C67.9609 39.93 68.4375 40.06 68.7709 40.32C69.1042 40.58 69.2709 41.05 69.2709 41.73V45H68.1009L67.9409 44.22C67.7609 44.4267 67.5175 44.6267 67.2109 44.82C66.9042 45.0133 66.5275 45.11 66.0809 45.11C65.6342 45.11 65.2575 44.9933 64.9509 44.76C64.6442 44.5267 64.4909 44.18 64.4909 43.72V43.21C64.4909 42.8167 64.6242 42.51 64.8909 42.29C65.1575 42.07 65.5242 41.96 65.9909 41.96H67.7909V41.73C67.7842 41.49 67.7242 41.32 67.6109 41.22C67.5042 41.1133 67.3009 41.06 67.0009 41.06C66.7409 41.06 66.4209 41.07 66.0409 41.09C65.6609 41.1033 65.2709 41.1233 64.8709 41.15L64.7409 40.17C64.9742 40.13 65.2442 40.0933 65.5509 40.06C65.8642 40.02 66.1775 39.99 66.4909 39.97C66.8042 39.9433 67.0875 39.93 67.3409 39.93ZM66.5409 44.04C66.7209 44.04 66.9209 44 67.1409 43.92C67.3675 43.8333 67.5842 43.7167 67.7909 43.57V42.79H66.4509C66.2709 42.7967 66.1409 42.8433 66.0609 42.93C65.9875 43.0167 65.9509 43.1333 65.9509 43.28V43.52C65.9509 43.8667 66.1475 44.04 66.5409 44.04ZM75.2042 40.06L73.9142 41.78C73.8542 41.88 73.7776 41.9733 73.6842 42.06C73.5909 42.1467 73.5142 42.2067 73.4542 42.24V42.27C73.5142 42.31 73.5909 42.3833 73.6842 42.49C73.7776 42.59 73.8542 42.6933 73.9142 42.8L75.3742 45H73.7242L72.3242 42.7H71.8442C71.8642 42.8333 71.8776 42.9633 71.8842 43.09C71.8976 43.2167 71.9042 43.3367 71.9042 43.45V45H70.4342V38H71.9042V40.89C71.9109 41.2033 71.8909 41.5067 71.8442 41.8H72.3242L73.5542 40.06H75.2042ZM80.7902 40.06L79.5002 41.78C79.4402 41.88 79.3635 41.9733 79.2702 42.06C79.1768 42.1467 79.1002 42.2067 79.0402 42.24V42.27C79.1002 42.31 79.1768 42.3833 79.2702 42.49C79.3635 42.59 79.4402 42.6933 79.5002 42.8L80.9602 45H79.3102L77.9102 42.7H77.4302C77.4502 42.8333 77.4635 42.9633 77.4702 43.09C77.4835 43.2167 77.4902 43.3367 77.4902 43.45V45H76.0202V38H77.4902V40.89C77.4968 41.2033 77.4768 41.5067 77.4302 41.8H77.9102L79.1402 40.06H80.7902ZM83.7603 39.93C84.5936 39.93 85.1903 40.0733 85.5503 40.36C85.917 40.6467 86.1003 41.0667 86.1003 41.62C86.107 42.0667 85.9936 42.4033 85.7603 42.63C85.527 42.8567 85.1236 42.97 84.5503 42.97H82.7903C82.8303 43.3567 82.9403 43.6167 83.1203 43.75C83.307 43.8833 83.5936 43.95 83.9803 43.95C84.207 43.95 84.487 43.9433 84.8203 43.93C85.1603 43.91 85.5003 43.88 85.8403 43.84L85.9803 44.75C85.687 44.89 85.3403 44.9867 84.9403 45.04C84.547 45.0933 84.1703 45.12 83.8103 45.12C82.8636 45.12 82.1936 44.9133 81.8003 44.5C81.4136 44.0867 81.2203 43.4333 81.2203 42.54C81.2203 41.8933 81.3036 41.38 81.4703 41C81.6436 40.62 81.917 40.3467 82.2903 40.18C82.6636 40.0133 83.1536 39.93 83.7603 39.93ZM83.8103 40.97C83.557 40.97 83.3536 41 83.2003 41.06C83.0536 41.12 82.947 41.2367 82.8803 41.41C82.8136 41.5767 82.7736 41.82 82.7603 42.14H84.1503C84.3703 42.14 84.5103 42.0933 84.5703 42C84.637 41.9067 84.6703 41.77 84.6703 41.59C84.6703 41.3567 84.6036 41.1967 84.4703 41.11C84.337 41.0167 84.117 40.97 83.8103 40.97ZM90.3748 40.06V41.03H88.9948V43.42C88.9948 43.6 89.0348 43.73 89.1148 43.81C89.1948 43.8833 89.3348 43.92 89.5348 43.92H90.1748L90.3348 44.92C90.2082 44.9667 90.0582 45.0033 89.8848 45.03C89.7115 45.0567 89.5382 45.0767 89.3648 45.09C89.1982 45.1033 89.0548 45.11 88.9348 45.11C88.4882 45.11 88.1382 44.9933 87.8848 44.76C87.6382 44.52 87.5148 44.1833 87.5148 43.75V41.03H86.6548V40.11L87.5148 40.07V38.69H88.9948V40.06H90.3748Z" fill="black"/>
<path d="M35.5325 57.696L35.2685 60.336H23.6525V57.696H25.2605C25.5965 55.808 26.3645 54.416 27.5645 53.52C28.7805 52.608 30.5805 52.152 32.9645 52.152C33.9085 52.152 34.7485 52.216 35.4845 52.344C36.2205 52.472 36.8605 52.624 37.4045 52.8L36.9965 56.352C36.8845 56.336 36.6445 56.32 36.2765 56.304C35.9245 56.272 35.5165 56.248 35.0525 56.232C34.5885 56.2 34.1325 56.192 33.6845 56.208C33.2365 56.208 32.8605 56.24 32.5565 56.304C32.1405 56.4 31.7885 56.552 31.5005 56.76C31.2285 56.968 31.0125 57.28 30.8525 57.696H35.5325ZM35.1245 61.056L34.8605 63.696H30.8045C30.9645 64.144 31.1805 64.48 31.4525 64.704C31.7405 64.928 32.1085 65.072 32.5565 65.136C32.9085 65.184 33.3725 65.216 33.9485 65.232C34.5245 65.232 35.1325 65.208 35.7725 65.16C36.4125 65.096 36.9805 65.024 37.4765 64.944L37.8605 68.496C37.2685 68.72 36.5645 68.904 35.7485 69.048C34.9485 69.208 34.0205 69.288 32.9645 69.288C30.5645 69.288 28.7645 68.832 27.5645 67.92C26.3645 67.008 25.5965 65.6 25.2605 63.696H23.6285V61.056H35.1245ZM45.2658 52.104C46.6898 52.104 47.8178 52.224 48.6498 52.464C49.4978 52.688 50.1058 53.08 50.4738 53.64C50.8418 54.2 51.0258 54.976 51.0258 55.968C51.0258 57.184 50.8498 58.144 50.4978 58.848C50.1458 59.552 49.4098 59.984 48.2898 60.144V60.24C49.4898 60.416 50.3138 60.832 50.7618 61.488C51.2098 62.128 51.4418 63.096 51.4578 64.392C51.4738 65.576 51.2818 66.536 50.8818 67.272C50.4818 67.992 49.8258 68.52 48.9138 68.856C48.0178 69.176 46.8098 69.336 45.2898 69.336C44.2658 69.336 43.2178 69.288 42.1458 69.192C41.0898 69.112 40.0738 69.008 39.0978 68.88L39.2418 65.232C39.9938 65.264 40.6178 65.288 41.1138 65.304C41.6258 65.32 42.0898 65.336 42.5058 65.352C42.9378 65.352 43.3858 65.352 43.8498 65.352C44.5058 65.352 45.0098 65.32 45.3618 65.256C45.7298 65.176 45.9778 65.016 46.1058 64.776C46.2498 64.536 46.3218 64.168 46.3218 63.672C46.3218 63.032 46.2018 62.592 45.9618 62.352C45.7218 62.112 45.2258 62 44.4738 62.016L41.2818 62.064V58.896H44.4738C45.0018 58.896 45.3858 58.84 45.6258 58.728C45.8658 58.616 46.0178 58.448 46.0818 58.224C46.1458 58 46.1778 57.728 46.1778 57.408C46.1778 56.848 46.0498 56.488 45.7938 56.328C45.5538 56.152 45.0658 56.064 44.3298 56.064H39.6018L39.4578 52.56C40.4338 52.4 41.4098 52.288 42.3858 52.224C43.3618 52.144 44.3218 52.104 45.2658 52.104ZM59.4048 52.152C60.7488 52.152 61.8528 52.28 62.7168 52.536C63.5808 52.776 64.2528 53.2 64.7328 53.808C65.2128 54.416 65.5488 55.272 65.7408 56.376C65.9328 57.464 66.0288 58.864 66.0288 60.576C66.0288 62.464 65.8928 63.984 65.6208 65.136C65.3488 66.288 64.9168 67.168 64.3248 67.776C63.7488 68.368 62.9808 68.768 62.0208 68.976C61.0768 69.184 59.9168 69.288 58.5408 69.288C58.0448 69.288 57.3568 69.264 56.4768 69.216C55.5968 69.168 54.6448 69.016 53.6208 68.76L53.8368 65.64C54.3648 65.64 54.8368 65.648 55.2528 65.664C55.6688 65.664 56.1248 65.664 56.6208 65.664C57.1328 65.664 57.7728 65.664 58.5408 65.664C59.1808 65.664 59.6688 65.576 60.0048 65.4C60.3568 65.208 60.6048 64.888 60.7488 64.44C60.8928 63.976 60.9888 63.352 61.0368 62.568C60.6048 62.872 60.1328 63.088 59.6208 63.216C59.1088 63.328 58.5088 63.384 57.8208 63.384C56.5568 63.384 55.5728 63.176 54.8688 62.76C54.1648 62.344 53.6688 61.76 53.3808 61.008C53.0928 60.24 52.9488 59.352 52.9488 58.344C52.9488 56.872 53.1248 55.688 53.4768 54.792C53.8448 53.88 54.4928 53.216 55.4208 52.8C56.3648 52.368 57.6928 52.152 59.4048 52.152ZM57.8208 58.224C57.8208 58.976 57.9248 59.456 58.1328 59.664C58.3408 59.872 58.7648 59.976 59.4048 59.976C59.7248 59.976 60.0048 59.944 60.2448 59.88C60.4848 59.8 60.7568 59.688 61.0608 59.544C61.0608 58.44 61.0208 57.624 60.9408 57.096C60.8608 56.552 60.7008 56.2 60.4608 56.04C60.2208 55.864 59.8528 55.776 59.3568 55.776C58.8768 55.776 58.5248 55.848 58.3008 55.992C58.0928 56.136 57.9568 56.392 57.8928 56.76C57.8448 57.112 57.8208 57.6 57.8208 58.224ZM70.4303 64.56C71.0703 64.56 71.5103 64.688 71.7503 64.944C72.0063 65.184 72.1423 65.632 72.1583 66.288V67.824C72.1583 68.624 72.0943 69.312 71.9663 69.888C71.8383 70.48 71.6543 71.008 71.4143 71.472C71.1743 71.952 70.8863 72.424 70.5503 72.888L68.6783 72.288C68.8543 71.744 68.9663 71.192 69.0143 70.632C69.0783 70.088 69.1183 69.544 69.1343 69C68.1903 69 67.7023 68.488 67.6703 67.464L67.7423 66.288C67.7583 65.632 67.8863 65.184 68.1263 64.944C68.3663 64.688 68.8063 64.56 69.4463 64.56H70.4303Z" fill="#18191F"/>
<path d="M71.4358 52.98C71.9691 52.98 72.3991 53.0367 72.7258 53.15C73.0591 53.2567 73.3124 53.44 73.4858 53.7C73.6658 53.96 73.7891 54.3167 73.8558 54.77C73.9224 55.2233 73.9558 55.7933 73.9558 56.48C73.9558 57.26 73.9024 57.89 73.7958 58.37C73.6891 58.85 73.5191 59.2167 73.2858 59.47C73.0591 59.7233 72.7624 59.8967 72.3958 59.99C72.0291 60.0767 71.5824 60.12 71.0558 60.12C70.8758 60.12 70.6258 60.11 70.3058 60.09C69.9924 60.0767 69.6524 60.0233 69.2858 59.93L69.3758 58.96C69.5624 58.9667 69.7291 58.9733 69.8758 58.98C70.0291 58.98 70.1958 58.98 70.3758 58.98C70.5558 58.98 70.7824 58.9833 71.0558 58.99C71.4091 58.9833 71.6824 58.93 71.8758 58.83C72.0758 58.7233 72.2191 58.5333 72.3058 58.26C72.3991 57.9867 72.4558 57.6033 72.4758 57.11C72.2691 57.3033 72.0458 57.44 71.8058 57.52C71.5658 57.5933 71.2758 57.63 70.9358 57.63C70.4358 57.63 70.0424 57.54 69.7558 57.36C69.4758 57.1733 69.2758 56.9167 69.1558 56.59C69.0424 56.2633 68.9858 55.8833 68.9858 55.45C68.9858 54.8833 69.0558 54.42 69.1958 54.06C69.3424 53.6933 69.5924 53.4233 69.9458 53.25C70.3058 53.07 70.8024 52.98 71.4358 52.98ZM70.4258 55.43C70.4191 55.8367 70.4791 56.13 70.6058 56.31C70.7391 56.4833 70.9991 56.57 71.3858 56.57C71.5858 56.57 71.7658 56.5433 71.9258 56.49C72.0924 56.43 72.2791 56.33 72.4858 56.19C72.4858 55.6233 72.4658 55.19 72.4258 54.89C72.3858 54.59 72.2891 54.3867 72.1358 54.28C71.9891 54.1667 71.7524 54.11 71.4258 54.11C71.1324 54.11 70.9124 54.1567 70.7658 54.25C70.6258 54.3433 70.5324 54.4867 70.4858 54.68C70.4391 54.8733 70.4191 55.1233 70.4258 55.43ZM77.3342 52.98C77.8675 52.98 78.2975 53.0367 78.6242 53.15C78.9575 53.2567 79.2109 53.44 79.3842 53.7C79.5642 53.96 79.6875 54.3167 79.7542 54.77C79.8209 55.2233 79.8542 55.7933 79.8542 56.48C79.8542 57.26 79.8009 57.89 79.6942 58.37C79.5875 58.85 79.4175 59.2167 79.1842 59.47C78.9575 59.7233 78.6609 59.8967 78.2942 59.99C77.9275 60.0767 77.4809 60.12 76.9542 60.12C76.7742 60.12 76.5242 60.11 76.2042 60.09C75.8909 60.0767 75.5509 60.0233 75.1842 59.93L75.2742 58.96C75.4609 58.9667 75.6275 58.9733 75.7742 58.98C75.9275 58.98 76.0942 58.98 76.2742 58.98C76.4542 58.98 76.6809 58.9833 76.9542 58.99C77.3075 58.9833 77.5809 58.93 77.7742 58.83C77.9742 58.7233 78.1175 58.5333 78.2042 58.26C78.2975 57.9867 78.3542 57.6033 78.3742 57.11C78.1675 57.3033 77.9442 57.44 77.7042 57.52C77.4642 57.5933 77.1742 57.63 76.8342 57.63C76.3342 57.63 75.9409 57.54 75.6542 57.36C75.3742 57.1733 75.1742 56.9167 75.0542 56.59C74.9409 56.2633 74.8842 55.8833 74.8842 55.45C74.8842 54.8833 74.9542 54.42 75.0942 54.06C75.2409 53.6933 75.4909 53.4233 75.8442 53.25C76.2042 53.07 76.7009 52.98 77.3342 52.98ZM76.3242 55.43C76.3175 55.8367 76.3775 56.13 76.5042 56.31C76.6375 56.4833 76.8975 56.57 77.2842 56.57C77.4842 56.57 77.6642 56.5433 77.8242 56.49C77.9909 56.43 78.1775 56.33 78.3842 56.19C78.3842 55.6233 78.3642 55.19 78.3242 54.89C78.2842 54.59 78.1875 54.3867 78.0342 54.28C77.8875 54.1667 77.6509 54.11 77.3242 54.11C77.0309 54.11 76.8109 54.1567 76.6642 54.25C76.5242 54.3433 76.4309 54.4867 76.3842 54.68C76.3375 54.8733 76.3175 55.1233 76.3242 55.43Z" fill="#18191F"/>
<path fill-rule="evenodd" clip-rule="evenodd" d="M55.5312 13.5333C54.3404 13.5333 53.375 14.5631 53.375 15.8333C53.375 17.1036 54.3404 18.1333 55.5312 18.1333C56.7221 18.1333 57.6875 17.1036 57.6875 15.8333C57.6875 14.5631 56.7221 13.5333 55.5312 13.5333ZM52.0094 15.0667C52.3424 13.3169 53.7926 12 55.5312 12C57.2699 12 58.7201 13.3169 59.0531 15.0667H62V16.6H59.0531C58.7201 18.3497 57.2699 19.6667 55.5312 19.6667C53.7926 19.6667 52.3424 18.3497 52.0094 16.6H39V15.0667H52.0094ZM45.4688 21.2C44.2779 21.2 43.3125 22.2297 43.3125 23.5C43.3125 24.7703 44.2779 25.8 45.4688 25.8C46.6596 25.8 47.625 24.7703 47.625 23.5C47.625 22.2297 46.6596 21.2 45.4688 21.2ZM41.9469 22.7333C42.2799 20.9836 43.7301 19.6667 45.4688 19.6667C47.2074 19.6667 48.6576 20.9836 48.9906 22.7333H62V24.2667H48.9906C48.6576 26.0164 47.2074 27.3333 45.4688 27.3333C43.7301 27.3333 42.2799 26.0164 41.9469 24.2667H39V22.7333H41.9469ZM55.5312 28.8667C54.3404 28.8667 53.375 29.8964 53.375 31.1667C53.375 32.4369 54.3404 33.4667 55.5312 33.4667C56.7221 33.4667 57.6875 32.4369 57.6875 31.1667C57.6875 29.8964 56.7221 28.8667 55.5312 28.8667ZM52.0094 30.4C52.3424 28.6503 53.7926 27.3333 55.5312 27.3333C57.2699 27.3333 58.7201 28.6503 59.0531 30.4H62V31.9333H59.0531C58.7201 33.6831 57.2699 35 55.5312 35C53.7926 35 52.3424 33.6831 52.0094 31.9333H39V30.4H52.0094Z" fill="#284B63"/>
</svg>
