<svg width="196" height="51" viewBox="0 0 196 51" fill="none" xmlns="http://www.w3.org/2000/svg">
<g filter="url(#filter0_d)">
<path d="M16.456 42.336C12.52 42.336 9.288 41.408 6.76 39.552C4.232 37.664 2.872 34.976 2.68 31.488H12.712C12.808 32.672 13.16 33.536 13.768 34.08C14.376 34.624 15.16 34.896 16.12 34.896C16.984 34.896 17.688 34.688 18.232 34.272C18.808 33.824 19.096 33.216 19.096 32.448C19.096 31.456 18.632 30.688 17.704 30.144C16.776 29.6 15.272 28.992 13.192 28.32C10.984 27.584 9.192 26.88 7.816 26.208C6.472 25.504 5.288 24.496 4.264 23.184C3.272 21.84 2.776 20.096 2.776 17.952C2.776 15.776 3.32 13.92 4.408 12.384C5.496 10.816 7 9.632 8.92 8.832C10.84 8.032 13.016 7.632 15.448 7.632C19.384 7.632 22.52 8.56 24.856 10.416C27.224 12.24 28.488 14.816 28.648 18.144H18.424C18.392 17.12 18.072 16.352 17.464 15.84C16.888 15.328 16.136 15.072 15.208 15.072C14.504 15.072 13.928 15.28 13.48 15.696C13.032 16.112 12.808 16.704 12.808 17.472C12.808 18.112 13.048 18.672 13.528 19.152C14.04 19.6 14.664 20 15.4 20.352C16.136 20.672 17.224 21.088 18.664 21.6C20.808 22.336 22.568 23.072 23.944 23.808C25.352 24.512 26.552 25.52 27.544 26.832C28.568 28.112 29.08 29.744 29.08 31.728C29.08 33.744 28.568 35.552 27.544 37.152C26.552 38.752 25.096 40.016 23.176 40.944C21.288 41.872 19.048 42.336 16.456 42.336ZM48.2856 14.832C51.3576 14.832 53.7896 15.872 55.5816 17.952C57.4056 20 58.3176 22.784 58.3176 26.304V42H48.9096V27.552C48.9096 26.016 48.5096 24.816 47.7096 23.952C46.9096 23.056 45.8376 22.608 44.4936 22.608C43.0856 22.608 41.9816 23.056 41.1816 23.952C40.3816 24.816 39.9816 26.016 39.9816 27.552V42H30.5736V6.48H39.9816V18.912C40.8136 17.696 41.9336 16.72 43.3416 15.984C44.7816 15.216 46.4296 14.832 48.2856 14.832ZM65.3519 12.576C63.6879 12.576 62.3439 12.128 61.3199 11.232C60.3279 10.304 59.8319 9.152 59.8319 7.776C59.8319 6.368 60.3279 5.2 61.3199 4.272C62.3439 3.344 63.6879 2.88 65.3519 2.88C66.9839 2.88 68.2959 3.344 69.2879 4.272C70.3119 5.2 70.8239 6.368 70.8239 7.776C70.8239 9.152 70.3119 10.304 69.2879 11.232C68.2959 12.128 66.9839 12.576 65.3519 12.576ZM70.0079 15.072V42H60.5999V15.072H70.0079ZM90.1015 14.832C93.2055 14.832 95.6695 15.872 97.4935 17.952C99.3175 20 100.23 22.784 100.23 26.304V42H90.8215V27.552C90.8215 26.016 90.4215 24.816 89.6215 23.952C88.8215 23.056 87.7495 22.608 86.4055 22.608C84.9975 22.608 83.8935 23.056 83.0935 23.952C82.2935 24.816 81.8935 26.016 81.8935 27.552V42H72.4855V15.072H81.8935V18.912C82.7255 17.696 83.8455 16.72 85.2535 15.984C86.6615 15.216 88.2775 14.832 90.1015 14.832ZM128.24 28.224C128.24 28.96 128.192 29.696 128.096 30.432H110.288C110.384 31.904 110.784 33.008 111.488 33.744C112.224 34.448 113.152 34.8 114.272 34.8C115.84 34.8 116.96 34.096 117.632 32.688H127.664C127.248 34.544 126.432 36.208 125.216 37.68C124.032 39.12 122.528 40.256 120.704 41.088C118.88 41.92 116.864 42.336 114.656 42.336C112 42.336 109.632 41.776 107.552 40.656C105.504 39.536 103.888 37.936 102.704 35.856C101.552 33.776 100.976 31.328 100.976 28.512C100.976 25.696 101.552 23.264 102.704 21.216C103.856 19.136 105.456 17.536 107.504 16.416C109.584 15.296 111.968 14.736 114.656 14.736C117.312 14.736 119.664 15.28 121.712 16.368C123.76 17.456 125.36 19.024 126.512 21.072C127.664 23.088 128.24 25.472 128.24 28.224ZM118.64 25.872C118.64 24.72 118.256 23.824 117.488 23.184C116.72 22.512 115.76 22.176 114.608 22.176C113.456 22.176 112.512 22.496 111.776 23.136C111.04 23.744 110.56 24.656 110.336 25.872H118.64Z" fill="#524239"/>
<path d="M160.488 42H153.348L137.181 17.571V42H130.041V6.351H137.181L153.348 30.831V6.351H160.488V42ZM187.077 13.746V42H179.886V38.43C178.968 39.654 177.761 40.623 176.265 41.337C174.803 42.017 173.205 42.357 171.471 42.357C169.261 42.357 167.306 41.898 165.606 40.98C163.906 40.028 162.563 38.651 161.577 36.849C160.625 35.013 160.149 32.837 160.149 30.321V13.746H167.289V29.301C167.289 31.545 167.85 33.279 168.972 34.503C170.094 35.693 171.624 36.288 173.562 36.288C175.534 36.288 177.081 35.693 178.203 34.503C179.325 33.279 179.886 31.545 179.886 29.301V13.746H187.077Z" fill="#AC4B44"/>
</g>
<defs>
<filter id="filter0_d" x="0.680054" y="0.880005" width="194.397" height="49.477" filterUnits="userSpaceOnUse" color-interpolation-filters="sRGB">
<feFlood flood-opacity="0" result="BackgroundImageFix"/>
<feColorMatrix in="SourceAlpha" type="matrix" values="0 0 0 0 0 0 0 0 0 0 0 0 0 0 0 0 0 0 127 0"/>
<feOffset dx="3" dy="3"/>
<feGaussianBlur stdDeviation="2.5"/>
<feColorMatrix type="matrix" values="0 0 0 0 0.627451 0 0 0 0 0.596078 0 0 0 0 0.568627 0 0 0 1 0"/>
<feBlend mode="normal" in2="BackgroundImageFix" result="effect1_dropShadow"/>
<feBlend mode="normal" in="SourceGraphic" in2="effect1_dropShadow" result="shape"/>
</filter>
</defs>
</svg>
